{
    "patcher": {
        "fileversion": 1,
        "appversion": {
            "major": 9,
            "minor": 1,
            "revision": 2,
            "architecture": "x64",
            "modernui": 1
        },
        "classnamespace": "box",
        "rect": [ 34.0, 77.0, 1468.0, 705.0 ],
        "boxes": [
            {
                "box": {
                    "automatic": 1,
                    "id": "obj-2",
                    "maxclass": "scope~",
                    "numinlets": 2,
                    "numoutlets": 0,
                    "patching_rect": [ 676.6666505336761, 270.546010017395, 418.4615783691406, 166.15386199951172 ]
                }
            },
            {
                "box": {
                    "id": "obj-52",
                    "maxclass": "newobj",
                    "numinlets": 2,
                    "numoutlets": 1,
                    "outlettype": [ "signal" ],
                    "patching_rect": [ 422.4138152599335, 910.3448753356934, 44.0, 22.0 ],
                    "text": "*~ 127"
                }
            },
            {
                "box": {
                    "id": "obj-53",
                    "maxclass": "newobj",
                    "numinlets": 2,
                    "numoutlets": 1,
                    "outlettype": [ "signal" ],
                    "patching_rect": [ 422.4138152599335, 879.3103909492493, 33.0, 22.0 ],
                    "text": "+~ 1"
                }
            },
            {
                "box": {
                    "id": "obj-51",
                    "maxclass": "newobj",
                    "numinlets": 2,
                    "numoutlets": 1,
                    "outlettype": [ "signal" ],
                    "patching_rect": [ 588.8888790607452, 898.2759091854095, 44.0, 22.0 ],
                    "text": "*~ 127"
                }
            },
            {
                "box": {
                    "id": "obj-50",
                    "maxclass": "newobj",
                    "numinlets": 2,
                    "numoutlets": 1,
                    "outlettype": [ "signal" ],
                    "patching_rect": [ 588.8888790607452, 867.2414247989655, 33.0, 22.0 ],
                    "text": "+~ 1"
                }
            },
            {
                "box": {
                    "id": "obj-48",
                    "maxclass": "jit.pwindow",
                    "numinlets": 1,
                    "numoutlets": 2,
                    "outlettype": [ "jit_matrix", "" ],
                    "patching_rect": [ 1274.1379978656769, 250.00001311302185, 203.4482865333557, 170.6896641254425 ],
                    "sync": 1
                }
            },
            {
                "box": {
                    "id": "obj-47",
                    "maxclass": "toggle",
                    "numinlets": 1,
                    "numoutlets": 1,
                    "outlettype": [ "int" ],
                    "parameter_enable": 0,
                    "patching_rect": [ 1208.6207530498505, 39.65517449378967, 50.00000262260437, 50.00000262260437 ]
                }
            },
            {
                "box": {
                    "id": "obj-42",
                    "maxclass": "message",
                    "numinlets": 2,
                    "numoutlets": 1,
                    "outlettype": [ "" ],
                    "patching_rect": [ 1306.89662027359, 163.79311203956604, 44.82758855819702, 22.0 ],
                    "text": "clear"
                }
            },
            {
                "box": {
                    "id": "obj-38",
                    "maxclass": "newobj",
                    "numinlets": 2,
                    "numoutlets": 1,
                    "outlettype": [ "bang" ],
                    "patching_rect": [ 1208.6207530498505, 101.72414326667786, 112.0, 22.0 ],
                    "text": "metro 1/samplerate"
                }
            },
            {
                "box": {
                    "id": "obj-27",
                    "maxclass": "newobj",
                    "numinlets": 1,
                    "numoutlets": 2,
                    "outlettype": [ "jit_matrix", "" ],
                    "patching_rect": [ 1274.1379978656769, 201.7241485118866, 172.0, 22.0 ],
                    "text": "jit.matrix scope 1 char 256 256"
                }
            },
            {
                "box": {
                    "id": "obj-25",
                    "maxclass": "newobj",
                    "numinlets": 1,
                    "numoutlets": 1,
                    "outlettype": [ "signal" ],
                    "patching_rect": [ 334.8852376937866, 909.8695442676544, 54.0, 22.0 ],
                    "text": "sig~ 255"
                }
            },
            {
                "box": {
                    "id": "obj-13",
                    "maxclass": "newobj",
                    "numinlets": 6,
                    "numoutlets": 1,
                    "outlettype": [ "signal" ],
                    "patching_rect": [ 588.8888790607452, 839.6552164554596, 98.0, 22.0 ],
                    "text": "scale~ -10 2 -1 1"
                }
            },
            {
                "box": {
                    "id": "obj-12",
                    "maxclass": "newobj",
                    "numinlets": 6,
                    "numoutlets": 1,
                    "outlettype": [ "signal" ],
                    "patching_rect": [ 422.4138152599335, 839.6552164554596, 98.0, 22.0 ],
                    "text": "scale~ -10 2 -1 1"
                }
            },
            {
                "box": {
                    "id": "obj-10",
                    "maxclass": "newobj",
                    "numinlets": 3,
                    "numoutlets": 1,
                    "outlettype": [ "" ],
                    "patching_rect": [ 424.1111190319061, 983.8695468902588, 109.0, 22.0 ],
                    "text": "jit.poke~ scope 2 1"
                }
            },
            {
                "box": {
                    "grid": 3,
                    "id": "obj-3",
                    "maxclass": "live.scope~",
                    "numinlets": 2,
                    "numoutlets": 1,
                    "outlettype": [ "bang" ],
                    "patching_rect": [ 1046.1539459228516, 467.6923522949219, 1024.6154823303223, 278.4615650177002 ],
                    "range": [ -4.0, 1.0 ]
                }
            },
            {
                "box": {
                    "id": "obj-39",
                    "maxclass": "spectroscope~",
                    "numinlets": 2,
                    "numoutlets": 1,
                    "outlettype": [ "" ],
                    "patching_rect": [ 1046.5517790317535, 774.1379716396332, 1024.0, 313.0 ]
                }
            },
            {
                "box": {
                    "id": "obj-16",
                    "maxclass": "message",
                    "numinlets": 2,
                    "numoutlets": 1,
                    "outlettype": [ "" ],
                    "patching_rect": [ 53.4482786655426, 529.3103725910187, 35.0, 22.0 ],
                    "text": "reset"
                }
            },
            {
                "box": {
                    "id": "obj-15",
                    "maxclass": "button",
                    "numinlets": 1,
                    "numoutlets": 1,
                    "outlettype": [ "bang" ],
                    "parameter_enable": 0,
                    "patching_rect": [ 511.1111190319061, 501.58730936050415, 24.0, 24.0 ]
                }
            },
            {
                "box": {
                    "id": "obj-14",
                    "lastchannelcount": 0,
                    "maxclass": "live.gain~",
                    "numinlets": 2,
                    "numoutlets": 5,
                    "outlettype": [ "signal", "signal", "", "float", "list" ],
                    "parameter_enable": 1,
                    "patching_rect": [ 93.47825908660889, 778.2608547210693, 48.0, 136.0 ],
                    "saved_attribute_attributes": {
                        "valueof": {
                            "parameter_longname": "live.gain~",
                            "parameter_mmax": 6.0,
                            "parameter_mmin": -70.0,
                            "parameter_modmode": 3,
                            "parameter_shortname": "live.gain~",
                            "parameter_type": 0,
                            "parameter_unitstyle": 4
                        }
                    },
                    "varname": "live.gain~"
                }
            },
            {
                "box": {
                    "id": "obj-5",
                    "maxclass": "newobj",
                    "numinlets": 1,
                    "numoutlets": 1,
                    "outlettype": [ "signal" ],
                    "patching_rect": [ 511.1111190319061, 538.0952464342117, 39.0, 22.0 ],
                    "text": "click~"
                }
            },
            {
                "box": {
                    "id": "obj-91",
                    "maxclass": "ezdac~",
                    "numinlets": 2,
                    "numoutlets": 0,
                    "patching_rect": [ 95.65217208862305, 960.8695468902588, 45.0, 45.0 ]
                }
            },
            {
                "box": {
                    "bubble": 1,
                    "fontname": "Arial",
                    "fontsize": 13.0,
                    "id": "obj-8",
                    "maxclass": "comment",
                    "numinlets": 1,
                    "numoutlets": 0,
                    "patching_rect": [ 887.4999915361404, 112.4999989271164, 166.0, 25.0 ],
                    "text": "choose a sampling rate"
                }
            },
            {
                "box": {
                    "bubble": 1,
                    "fontname": "Arial",
                    "fontsize": 13.0,
                    "id": "obj-6",
                    "maxclass": "comment",
                    "numinlets": 1,
                    "numoutlets": 0,
                    "patching_rect": [ 828.5714206695557, 24.99999976158142, 195.245117, 25.0 ],
                    "text": "report sampling rate choices"
                }
            },
            {
                "box": {
                    "fontname": "Arial",
                    "fontsize": 13.0,
                    "id": "obj-37",
                    "maxclass": "number",
                    "numinlets": 1,
                    "numoutlets": 2,
                    "outlettype": [ "", "bang" ],
                    "parameter_enable": 0,
                    "patching_rect": [ 899.9999914169312, 85.71428489685059, 55.0, 23.0 ],
                    "triangle": 0,
                    "triscale": 0.9
                }
            },
            {
                "box": {
                    "id": "obj-45",
                    "items": [ 11025, ",", 12000, ",", 16000, ",", 22050, ",", 24000, ",", 32000, ",", 44100, ",", 48000, ",", 88200, ",", 96000, ",", 192000 ],
                    "maxclass": "umenu",
                    "numinlets": 1,
                    "numoutlets": 3,
                    "outlettype": [ "int", "", "" ],
                    "parameter_enable": 0,
                    "patching_rect": [ 808.9285637140274, 114.28571319580078, 78.0, 22.0 ]
                }
            },
            {
                "box": {
                    "id": "obj-46",
                    "maxclass": "button",
                    "numinlets": 1,
                    "numoutlets": 1,
                    "outlettype": [ "bang" ],
                    "parameter_enable": 0,
                    "patching_rect": [ 808.9285637140274, 28.571428298950195, 20.0, 20.0 ]
                }
            },
            {
                "box": {
                    "fontname": "Arial",
                    "fontsize": 13.0,
                    "id": "obj-82",
                    "maxclass": "newobj",
                    "numinlets": 2,
                    "numoutlets": 2,
                    "outlettype": [ "", "int" ],
                    "patching_rect": [ 808.9285637140274, 60.714285135269165, 110.0, 23.0 ],
                    "text": "adstatus sr"
                }
            },
            {
                "box": {
                    "id": "obj-76",
                    "maxclass": "newobj",
                    "numinlets": 1,
                    "numoutlets": 2,
                    "outlettype": [ "signal", "signal" ],
                    "patcher": {
                        "fileversion": 1,
                        "appversion": {
                            "major": 9,
                            "minor": 1,
                            "revision": 2,
                            "architecture": "x64",
                            "modernui": 1
                        },
                        "classnamespace": "dsp.gen",
                        "rect": [ 34.0, 77.0, 1468.0, 705.0 ],
                        "boxes": [
                            {
                                "box": {
                                    "id": "obj-39",
                                    "maxclass": "newobj",
                                    "numinlets": 1,
                                    "numoutlets": 1,
                                    "outlettype": [ "" ],
                                    "patching_rect": [ 1357.5129505793254, 721.0, 41.0, 22.0 ],
                                    "text": "* P_M"
                                }
                            },
                            {
                                "box": {
                                    "id": "obj-37",
                                    "maxclass": "newobj",
                                    "numinlets": 2,
                                    "numoutlets": 1,
                                    "outlettype": [ "" ],
                                    "patching_rect": [ 1884.0, 772.0, 29.5, 22.0 ],
                                    "text": "/"
                                }
                            },
                            {
                                "box": {
                                    "id": "obj-27",
                                    "maxclass": "newobj",
                                    "numinlets": 0,
                                    "numoutlets": 1,
                                    "outlettype": [ "" ],
                                    "patching_rect": [ 1946.0, 742.0, 29.0, 22.0 ],
                                    "text": "r Zc"
                                }
                            },
                            {
                                "box": {
                                    "id": "obj-26",
                                    "maxclass": "newobj",
                                    "numinlets": 1,
                                    "numoutlets": 1,
                                    "outlettype": [ "" ],
                                    "patching_rect": [ 1884.0, 725.0, 41.0, 22.0 ],
                                    "text": "* P_M"
                                }
                            },
                            {
                                "box": {
                                    "id": "obj-25",
                                    "maxclass": "comment",
                                    "numinlets": 1,
                                    "numoutlets": 0,
                                    "patching_rect": [ 1147.0, 762.0, 150.0, 20.0 ],
                                    "text": "redimensionner"
                                }
                            },
                            {
                                "box": {
                                    "id": "obj-7",
                                    "maxclass": "newobj",
                                    "numinlets": 1,
                                    "numoutlets": 1,
                                    "outlettype": [ "" ],
                                    "patching_rect": [ 1093.8462581634521, 761.0, 41.0, 22.0 ],
                                    "text": "* P_M"
                                }
                            },
                            {
                                "box": {
                                    "id": "obj-35",
                                    "maxclass": "newobj",
                                    "numinlets": 0,
                                    "numoutlets": 1,
                                    "outlettype": [ "" ],
                                    "patching_rect": [ 1471.8462924957275, 192.307710647583, 24.0, 22.0 ],
                                    "text": "r D"
                                }
                            },
                            {
                                "box": {
                                    "id": "obj-34",
                                    "maxclass": "newobj",
                                    "numinlets": 2,
                                    "numoutlets": 1,
                                    "outlettype": [ "" ],
                                    "patching_rect": [ 1309.2308940887451, 236.92309951782227, 47.0, 22.0 ],
                                    "text": "delay 1"
                                }
                            },
                            {
                                "box": {
                                    "id": "obj-31",
                                    "maxclass": "newobj",
                                    "numinlets": 2,
                                    "numoutlets": 1,
                                    "outlettype": [ "" ],
                                    "patching_rect": [ 1453.8462924957275, 236.92309951782227, 37.0, 22.0 ],
                                    "text": "delay"
                                }
                            },
                            {
                                "box": {
                                    "id": "obj-30",
                                    "maxclass": "newobj",
                                    "numinlets": 1,
                                    "numoutlets": 1,
                                    "outlettype": [ "" ],
                                    "patching_rect": [ 1381.5385932922363, 144.61539840698242, 76.0, 22.0 ],
                                    "text": "history u_val"
                                }
                            },
                            {
                                "box": {
                                    "id": "obj-24",
                                    "maxclass": "newobj",
                                    "numinlets": 1,
                                    "numoutlets": 1,
                                    "outlettype": [ "" ],
                                    "patching_rect": [ 1238.4616565704346, 144.61539840698242, 75.0, 22.0 ],
                                    "text": "history x_val"
                                }
                            },
                            {
                                "box": {
                                    "id": "obj-23",
                                    "maxclass": "newobj",
                                    "numinlets": 0,
                                    "numoutlets": 1,
                                    "outlettype": [ "" ],
                                    "patching_rect": [ 1184.6154975891113, 192.307710647583, 24.0, 22.0 ],
                                    "text": "r D"
                                }
                            },
                            {
                                "box": {
                                    "id": "obj-22",
                                    "maxclass": "newobj",
                                    "numinlets": 2,
                                    "numoutlets": 1,
                                    "outlettype": [ "" ],
                                    "patching_rect": [ 1166.1539573669434, 236.92309951782227, 37.0, 22.0 ],
                                    "text": "delay"
                                }
                            },
                            {
                                "box": {
                                    "id": "obj-21",
                                    "maxclass": "newobj",
                                    "numinlets": 1,
                                    "numoutlets": 1,
                                    "outlettype": [ "" ],
                                    "patching_rect": [ 1104.6154899597168, 144.61539840698242, 76.0, 22.0 ],
                                    "text": "history p_val"
                                }
                            },
                            {
                                "box": {
                                    "id": "obj-18",
                                    "maxclass": "newobj",
                                    "numinlets": 0,
                                    "numoutlets": 1,
                                    "outlettype": [ "" ],
                                    "patching_rect": [ 1526.1539916992188, 267.69233322143555, 29.0, 22.0 ],
                                    "text": "r a1"
                                }
                            },
                            {
                                "box": {
                                    "id": "obj-17",
                                    "maxclass": "newobj",
                                    "numinlets": 0,
                                    "numoutlets": 1,
                                    "outlettype": [ "" ],
                                    "patching_rect": [ 1596.9232292175293, 267.69233322143555, 29.0, 22.0 ],
                                    "text": "r b0"
                                }
                            },
                            {
                                "box": {
                                    "id": "obj-14",
                                    "maxclass": "newobj",
                                    "numinlets": 0,
                                    "numoutlets": 1,
                                    "outlettype": [ "" ],
                                    "patching_rect": [ 1669.2309284210205, 267.69233322143555, 43.0, 22.0 ],
                                    "text": "r b_1a"
                                }
                            },
                            {
                                "box": {
                                    "id": "obj-12",
                                    "maxclass": "newobj",
                                    "numinlets": 0,
                                    "numoutlets": 1,
                                    "outlettype": [ "" ],
                                    "patching_rect": [ 1741.5386276245117, 267.69233322143555, 43.0, 22.0 ],
                                    "text": "r a_1a"
                                }
                            },
                            {
                                "box": {
                                    "id": "obj-11",
                                    "maxclass": "newobj",
                                    "numinlets": 0,
                                    "numoutlets": 1,
                                    "outlettype": [ "" ],
                                    "patching_rect": [ 1812.3078651428223, 267.69233322143555, 43.0, 22.0 ],
                                    "text": "r a_2a"
                                }
                            },
                            {
                                "box": {
                                    "id": "obj-10",
                                    "maxclass": "newobj",
                                    "numinlets": 0,
                                    "numoutlets": 1,
                                    "outlettype": [ "" ],
                                    "patching_rect": [ 12.884617328643799, 189.0, 185.0, 22.0 ],
                                    "text": "param @default 0.007 @name R"
                                }
                            },
                            {
                                "box": {
                                    "id": "obj-8",
                                    "maxclass": "newobj",
                                    "numinlets": 0,
                                    "numoutlets": 1,
                                    "outlettype": [ "" ],
                                    "patching_rect": [ 15.384617328643799, 130.41026985645294, 174.0, 22.0 ],
                                    "text": "param @default 0.3 @name qr"
                                }
                            },
                            {
                                "box": {
                                    "id": "obj-6",
                                    "maxclass": "newobj",
                                    "numinlets": 0,
                                    "numoutlets": 1,
                                    "outlettype": [ "" ],
                                    "patching_rect": [ 15.384617328643799, 106.41026985645294, 180.0, 22.0 ],
                                    "text": "param @default 2205 @name fr"
                                }
                            },
                            {
                                "box": {
                                    "id": "obj-3",
                                    "maxclass": "newobj",
                                    "numinlets": 0,
                                    "numoutlets": 1,
                                    "outlettype": [ "" ],
                                    "patching_rect": [ 402.0, 106.41026985645294, 224.0, 22.0 ],
                                    "text": "param @default 1.4 @name cp_over_cv"
                                }
                            },
                            {
                                "box": {
                                    "id": "obj-2",
                                    "maxclass": "newobj",
                                    "numinlets": 0,
                                    "numoutlets": 1,
                                    "outlettype": [ "" ],
                                    "patching_rect": [ 402.0, 83.33334386348724, 186.0, 22.0 ],
                                    "text": "param @default 5.6e-8 @name lt"
                                }
                            },
                            {
                                "box": {
                                    "id": "obj-1",
                                    "maxclass": "newobj",
                                    "numinlets": 0,
                                    "numoutlets": 1,
                                    "outlettype": [ "" ],
                                    "patching_rect": [ 402.0, 59.333343863487244, 179.0, 22.0 ],
                                    "text": "param @default 4e-8 @name lv"
                                }
                            },
                            {
                                "box": {
                                    "id": "obj-78",
                                    "maxclass": "newobj",
                                    "numinlets": 0,
                                    "numoutlets": 1,
                                    "outlettype": [ "" ],
                                    "patching_rect": [ 1884.6155643463135, 267.69233322143555, 42.0, 22.0 ],
                                    "text": "r b_c0"
                                }
                            },
                            {
                                "box": {
                                    "id": "obj-62",
                                    "maxclass": "newobj",
                                    "numinlets": 1,
                                    "numoutlets": 0,
                                    "patching_rect": [ 716.0, 635.0, 44.0, 22.0 ],
                                    "text": "s b_c0"
                                }
                            },
                            {
                                "box": {
                                    "id": "obj-60",
                                    "maxclass": "newobj",
                                    "numinlets": 0,
                                    "numoutlets": 1,
                                    "outlettype": [ "" ],
                                    "patching_rect": [ 13.153851985931396, 217.0, 216.0, 22.0 ],
                                    "text": "param @default 10*1000 @name P_M"
                                }
                            },
                            {
                                "box": {
                                    "id": "obj-58",
                                    "maxclass": "comment",
                                    "numinlets": 1,
                                    "numoutlets": 0,
                                    "patching_rect": [ 15.384617328643799, 807.6924097537994, 150.0, 20.0 ],
                                    "text": "Paramètres numériques"
                                }
                            },
                            {
                                "box": {
                                    "id": "obj-56",
                                    "maxclass": "comment",
                                    "numinlets": 1,
                                    "numoutlets": 0,
                                    "patching_rect": [ 15.384617328643799, 670.0, 150.0, 20.0 ],
                                    "text": "Paramètres de contrôle"
                                }
                            },
                            {
                                "box": {
                                    "id": "obj-52",
                                    "maxclass": "newobj",
                                    "numinlets": 1,
                                    "numoutlets": 0,
                                    "patching_rect": [ 631.75, 635.0, 45.0, 22.0 ],
                                    "text": "s a_2a"
                                }
                            },
                            {
                                "box": {
                                    "id": "obj-51",
                                    "maxclass": "newobj",
                                    "numinlets": 1,
                                    "numoutlets": 0,
                                    "patching_rect": [ 547.5, 635.0, 45.0, 22.0 ],
                                    "text": "s a_1a"
                                }
                            },
                            {
                                "box": {
                                    "id": "obj-50",
                                    "maxclass": "newobj",
                                    "numinlets": 1,
                                    "numoutlets": 0,
                                    "patching_rect": [ 463.25, 635.0, 45.0, 22.0 ],
                                    "text": "s b_1a"
                                }
                            },
                            {
                                "box": {
                                    "id": "obj-49",
                                    "maxclass": "newobj",
                                    "numinlets": 1,
                                    "numoutlets": 0,
                                    "patching_rect": [ 379.0, 635.0, 45.0, 22.0 ],
                                    "text": "s a_0a"
                                }
                            },
                            {
                                "box": {
                                    "id": "obj-48",
                                    "maxclass": "newobj",
                                    "numinlets": 1,
                                    "numoutlets": 0,
                                    "patching_rect": [ 294.75, 635.0, 31.0, 22.0 ],
                                    "text": "s b0"
                                }
                            },
                            {
                                "box": {
                                    "id": "obj-47",
                                    "maxclass": "newobj",
                                    "numinlets": 1,
                                    "numoutlets": 0,
                                    "patching_rect": [ 210.5, 635.0, 31.0, 22.0 ],
                                    "text": "s a1"
                                }
                            },
                            {
                                "box": {
                                    "id": "obj-46",
                                    "maxclass": "newobj",
                                    "numinlets": 1,
                                    "numoutlets": 0,
                                    "patching_rect": [ 126.25, 635.0, 31.0, 22.0 ],
                                    "text": "s Zc"
                                }
                            },
                            {
                                "box": {
                                    "id": "obj-45",
                                    "maxclass": "newobj",
                                    "numinlets": 1,
                                    "numoutlets": 0,
                                    "patching_rect": [ 42.0, 635.0, 26.0, 22.0 ],
                                    "text": "s D"
                                }
                            },
                            {
                                "box": {
                                    "id": "obj-43",
                                    "maxclass": "newobj",
                                    "numinlets": 0,
                                    "numoutlets": 1,
                                    "outlettype": [ "" ],
                                    "patching_rect": [ 402.0, 130.41026985645294, 193.0, 22.0 ],
                                    "text": "param @default 20 @name T_deg"
                                }
                            },
                            {
                                "box": {
                                    "code": "T_K = 273.15 + T_deg;                   // température (K)\r\nc = 20.05 * sqrt(T_K);                  // vitesse du son (m/s)\r\nrho = 1.292 * 273.15 / T_K;             // masse volumique (kg/m^3)\r\n\r\nomr = 2 * 3.1419 * fr;                  // pulsation de résonance de l'anche (rad/s)\r\nl_corr = 0.6133*R ;                     // longueur de correction due au rayonnement (m)\r\nL_eff = L + l_corr;                     // longueur effective du résonateur (m)\r\nS = 3.1419 * R*R;                       // section du résonateur (m^2)  \r\nZc = rho * c / S;                       // impédance caractéristique (kg/s)\r\nom1 = c * 3.1419 * 1/2 / L_eff;         // première pulsation de résonance du tube (rad/s)\r\nom2 = c * 3.1419 * 3/2 / L_eff;         \r\nP_m = gamma * P_M;                      // pression dans la bouche (Pa)\r\n\r\nD = round(2*L/c*samplerate);       // temps d'un aller retour dans le résonateur (samples)\r\nc1 = cos(om1/samplerate);\r\nc2 = cos(om2/samplerate);\r\nalpha = 2 / (R*pow(c,3/2)) * (sqrt(lv) + (cp_over_cv-1)*sqrt(lt) );\r\nF1 = exp(-2 * alpha * c * sqrt(om1/2) * L_eff);\r\nF2 = exp(-2 * alpha * c * sqrt(om2/2) * L_eff);\r\nF12 = F1 - F2;\r\nA1 = F1 * c1;\r\nA2 = F2 * c2;\r\nA12 = A1 - A2;\r\na1 = ( A12 - sqrt(A12*A12 - F12*F12)) / F12;\r\nb0 = sqrt(2*F1*F2*(c1-c2) * (A12 - sqrt(A12*A12 - F12*F12))) / F12;\r\na_0a = pow(samplerate,2)/pow(omr,2) + samplerate*qr/(2*omr);\r\nb_1a = 1 / a_0a;\r\na_1a = (2*pow(samplerate,2) / pow(omr,2) - 1) / a_0a;\r\na_2a = (samplerate*qr / (2*omr) - pow(samplerate,2)/pow(omr,2)) / a_0a;\r\nb_c0 = 1;\r\n\r\nout1=D; out2=Zc; out3=a1; out4=b0; out5=a_0a; out6=b_1a; out7=a_1a; out8=a_2a; out9=b_c0; ",
                                    "fontface": 0,
                                    "fontname": "<Monospaced>",
                                    "fontsize": 12.0,
                                    "id": "obj-40",
                                    "maxclass": "codebox",
                                    "numinlets": 1,
                                    "numoutlets": 9,
                                    "outlettype": [ "", "", "", "", "", "", "", "", "" ],
                                    "patching_rect": [ 42.0, 290.0, 693.0, 330.0 ]
                                }
                            },
                            {
                                "box": {
                                    "id": "obj-32",
                                    "maxclass": "comment",
                                    "numinlets": 1,
                                    "numoutlets": 0,
                                    "patching_rect": [ 46.1538519859314, 264.1025974750519, 150.0, 20.0 ],
                                    "text": "Paramètres dérivés"
                                }
                            },
                            {
                                "box": {
                                    "id": "obj-19",
                                    "maxclass": "newobj",
                                    "numinlets": 0,
                                    "numoutlets": 1,
                                    "outlettype": [ "" ],
                                    "patching_rect": [ 15.384617328643799, 83.33334386348724, 185.0, 22.0 ],
                                    "text": "param @default 0.013 @name w"
                                }
                            },
                            {
                                "box": {
                                    "id": "obj-13",
                                    "maxclass": "comment",
                                    "numinlets": 1,
                                    "numoutlets": 0,
                                    "patching_rect": [ 15.384617328643799, 37.333343863487244, 150.0, 20.0 ],
                                    "text": "Paramètres physiques"
                                }
                            },
                            {
                                "box": {
                                    "id": "obj-29",
                                    "maxclass": "newobj",
                                    "numinlets": 0,
                                    "numoutlets": 1,
                                    "outlettype": [ "" ],
                                    "patching_rect": [ 900.0000858306885, 226.15386772155762, 167.0, 22.0 ],
                                    "text": "in 1 @comment start_impulse"
                                }
                            },
                            {
                                "box": {
                                    "id": "obj-28",
                                    "maxclass": "newobj",
                                    "numinlets": 2,
                                    "numoutlets": 1,
                                    "outlettype": [ "" ],
                                    "patching_rect": [ 1093.8462581634521, 273.8461799621582, 29.5, 22.0 ],
                                    "text": "+"
                                }
                            },
                            {
                                "box": {
                                    "id": "obj-16",
                                    "maxclass": "newobj",
                                    "numinlets": 1,
                                    "numoutlets": 0,
                                    "patching_rect": [ 1884.0, 807.0, 35.0, 22.0 ],
                                    "text": "out 2"
                                }
                            },
                            {
                                "box": {
                                    "id": "obj-15",
                                    "maxclass": "newobj",
                                    "numinlets": 1,
                                    "numoutlets": 0,
                                    "patching_rect": [ 1093.8462581634521, 807.0, 35.0, 22.0 ],
                                    "text": "out 1"
                                }
                            },
                            {
                                "box": {
                                    "id": "obj-9",
                                    "maxclass": "newobj",
                                    "numinlets": 0,
                                    "numoutlets": 1,
                                    "outlettype": [ "" ],
                                    "patching_rect": [ 15.384617328643799, 829.4872843027115, 183.0, 22.0 ],
                                    "text": "param @default 8 @name K_val"
                                }
                            },
                            {
                                "box": {
                                    "id": "obj-5",
                                    "maxclass": "newobj",
                                    "numinlets": 0,
                                    "numoutlets": 1,
                                    "outlettype": [ "" ],
                                    "patching_rect": [ 15.384617328643799, 717.0, 289.0, 22.0 ],
                                    "text": "param @default 0.4 @min 0.1 @max 1 @name zeta"
                                }
                            },
                            {
                                "box": {
                                    "id": "obj-4",
                                    "maxclass": "newobj",
                                    "numinlets": 0,
                                    "numoutlets": 1,
                                    "outlettype": [ "" ],
                                    "patching_rect": [ 15.384617328643799, 693.0, 313.0, 22.0 ],
                                    "text": "param @default 0.42 @min 0.1 @max 1 @name gamma"
                                }
                            },
                            {
                                "box": {
                                    "id": "obj-38",
                                    "maxclass": "newobj",
                                    "numinlets": 0,
                                    "numoutlets": 1,
                                    "outlettype": [ "" ],
                                    "patching_rect": [ 15.384617328643799, 59.333343863487244, 185.0, 22.0 ],
                                    "text": "param @default 0.001 @name H"
                                }
                            },
                            {
                                "box": {
                                    "id": "obj-36",
                                    "maxclass": "newobj",
                                    "numinlets": 0,
                                    "numoutlets": 1,
                                    "outlettype": [ "" ],
                                    "patching_rect": [ 13.153851985931396, 165.0, 279.0, 22.0 ],
                                    "text": "param @default 0.66 @min 0.2 @max 1 @name L"
                                }
                            },
                            {
                                "box": {
                                    "code": "V_func(u_prev_, u_delay_, p_prev_, p_delay_, a1_, b0_){\r\n    return - a1_*u_prev_ - b0_*u_delay_ + a1_*p_prev_ - b0_*p_delay_;\r\n}\r\n\r\nW_func(x_, gamma_, zeta_){\r\n    heaviside = max(0, 1-gamma_+x_)/(1-gamma_+x_);\r\n    return heaviside * zeta_ * (1-gamma_+x_);\r\n}\r\n\r\np_prev = in1;\r\np_delay = in2;\r\nx_prev = in3;\r\nx_prev2 = in4;\r\nu_prev = in5;\r\nu_delay = in6;\r\n\r\na1 = in7;\r\nb0 = in8;\r\nb_1a = in9;\r\na_1a = in10;\r\na_2a = in11;\r\nb_c0 = in12;\r\n\r\nx = b_1a*p_prev + a_1a*x_prev + a_2a*x_prev2;\r\nW = W_func(x, gamma, zeta);\r\nV = V_func(u_prev, u_delay, p_prev, p_delay, a1, b0);\r\nu = 1/2 * sign(gamma-V) * (-b_c0*W*W + W * sqrt(pow(b_c0*W,2) + 4*abs(gamma-V)));\r\np = b_c0*u + V;\r\np_ext = (p + u - p_prev - u_prev) * samplerate;\r\n\r\nout1 = p;\r\nout2 = p_ext;\r\nout3 = x;\r\nout4 = u;",
                                    "fontface": 0,
                                    "fontname": "<Monospaced>",
                                    "fontsize": 12.0,
                                    "id": "obj-33",
                                    "maxclass": "codebox",
                                    "numinlets": 12,
                                    "numoutlets": 4,
                                    "outlettype": [ "", "", "", "" ],
                                    "patching_rect": [ 1093.8462581634521, 313.84618377685547, 810.0000772476196, 382.307728767395 ]
                                }
                            }
                        ],
                        "lines": [
                            {
                                "patchline": {
                                    "destination": [ "obj-33", 10 ],
                                    "source": [ "obj-11", 0 ]
                                }
                            },
                            {
                                "patchline": {
                                    "destination": [ "obj-33", 9 ],
                                    "source": [ "obj-12", 0 ]
                                }
                            },
                            {
                                "patchline": {
                                    "destination": [ "obj-33", 8 ],
                                    "source": [ "obj-14", 0 ]
                                }
                            },
                            {
                                "patchline": {
                                    "destination": [ "obj-33", 7 ],
                                    "source": [ "obj-17", 0 ]
                                }
                            },
                            {
                                "patchline": {
                                    "destination": [ "obj-33", 6 ],
                                    "source": [ "obj-18", 0 ]
                                }
                            },
                            {
                                "patchline": {
                                    "destination": [ "obj-22", 0 ],
                                    "order": 0,
                                    "source": [ "obj-21", 0 ]
                                }
                            },
                            {
                                "patchline": {
                                    "destination": [ "obj-28", 1 ],
                                    "order": 1,
                                    "source": [ "obj-21", 0 ]
                                }
                            },
                            {
                                "patchline": {
                                    "destination": [ "obj-33", 1 ],
                                    "source": [ "obj-22", 0 ]
                                }
                            },
                            {
                                "patchline": {
                                    "destination": [ "obj-22", 1 ],
                                    "source": [ "obj-23", 0 ]
                                }
                            },
                            {
                                "patchline": {
                                    "destination": [ "obj-33", 2 ],
                                    "order": 1,
                                    "source": [ "obj-24", 0 ]
                                }
                            },
                            {
                                "patchline": {
                                    "destination": [ "obj-34", 0 ],
                                    "order": 0,
                                    "source": [ "obj-24", 0 ]
                                }
                            },
                            {
                                "patchline": {
                                    "destination": [ "obj-37", 0 ],
                                    "source": [ "obj-26", 0 ]
                                }
                            },
                            {
                                "patchline": {
                                    "destination": [ "obj-37", 1 ],
                                    "source": [ "obj-27", 0 ]
                                }
                            },
                            {
                                "patchline": {
                                    "destination": [ "obj-33", 0 ],
                                    "source": [ "obj-28", 0 ]
                                }
                            },
                            {
                                "patchline": {
                                    "destination": [ "obj-28", 0 ],
                                    "source": [ "obj-29", 0 ]
                                }
                            },
                            {
                                "patchline": {
                                    "destination": [ "obj-31", 0 ],
                                    "order": 0,
                                    "source": [ "obj-30", 0 ]
                                }
                            },
                            {
                                "patchline": {
                                    "destination": [ "obj-33", 4 ],
                                    "order": 1,
                                    "source": [ "obj-30", 0 ]
                                }
                            },
                            {
                                "patchline": {
                                    "destination": [ "obj-33", 5 ],
                                    "source": [ "obj-31", 0 ]
                                }
                            },
                            {
                                "patchline": {
                                    "destination": [ "obj-21", 0 ],
                                    "order": 0,
                                    "source": [ "obj-33", 0 ]
                                }
                            },
                            {
                                "patchline": {
                                    "destination": [ "obj-24", 0 ],
                                    "source": [ "obj-33", 2 ]
                                }
                            },
                            {
                                "patchline": {
                                    "destination": [ "obj-26", 0 ],
                                    "order": 0,
                                    "source": [ "obj-33", 3 ]
                                }
                            },
                            {
                                "patchline": {
                                    "destination": [ "obj-30", 0 ],
                                    "order": 1,
                                    "source": [ "obj-33", 3 ]
                                }
                            },
                            {
                                "patchline": {
                                    "destination": [ "obj-39", 0 ],
                                    "source": [ "obj-33", 1 ]
                                }
                            },
                            {
                                "patchline": {
                                    "destination": [ "obj-7", 0 ],
                                    "order": 1,
                                    "source": [ "obj-33", 0 ]
                                }
                            },
                            {
                                "patchline": {
                                    "destination": [ "obj-33", 3 ],
                                    "source": [ "obj-34", 0 ]
                                }
                            },
                            {
                                "patchline": {
                                    "destination": [ "obj-31", 1 ],
                                    "source": [ "obj-35", 0 ]
                                }
                            },
                            {
                                "patchline": {
                                    "destination": [ "obj-16", 0 ],
                                    "source": [ "obj-37", 0 ]
                                }
                            },
                            {
                                "patchline": {
                                    "destination": [ "obj-45", 0 ],
                                    "source": [ "obj-40", 0 ]
                                }
                            },
                            {
                                "patchline": {
                                    "destination": [ "obj-46", 0 ],
                                    "source": [ "obj-40", 1 ]
                                }
                            },
                            {
                                "patchline": {
                                    "destination": [ "obj-47", 0 ],
                                    "source": [ "obj-40", 2 ]
                                }
                            },
                            {
                                "patchline": {
                                    "destination": [ "obj-48", 0 ],
                                    "source": [ "obj-40", 3 ]
                                }
                            },
                            {
                                "patchline": {
                                    "destination": [ "obj-49", 0 ],
                                    "source": [ "obj-40", 4 ]
                                }
                            },
                            {
                                "patchline": {
                                    "destination": [ "obj-50", 0 ],
                                    "source": [ "obj-40", 5 ]
                                }
                            },
                            {
                                "patchline": {
                                    "destination": [ "obj-51", 0 ],
                                    "source": [ "obj-40", 6 ]
                                }
                            },
                            {
                                "patchline": {
                                    "destination": [ "obj-52", 0 ],
                                    "source": [ "obj-40", 7 ]
                                }
                            },
                            {
                                "patchline": {
                                    "destination": [ "obj-62", 0 ],
                                    "source": [ "obj-40", 8 ]
                                }
                            },
                            {
                                "patchline": {
                                    "destination": [ "obj-15", 0 ],
                                    "source": [ "obj-7", 0 ]
                                }
                            },
                            {
                                "patchline": {
                                    "destination": [ "obj-33", 11 ],
                                    "source": [ "obj-78", 0 ]
                                }
                            }
                        ]
                    },
                    "patching_rect": [ 154.34782314300537, 649.9999876022339, 36.0, 22.0 ],
                    "text": "gen~",
                    "varname": "gen~_AB"
                }
            },
            {
                "box": {
                    "attr": "zeta",
                    "id": "obj-26",
                    "maxclass": "attrui",
                    "numinlets": 1,
                    "numoutlets": 1,
                    "outlettype": [ "" ],
                    "parameter_enable": 0,
                    "patching_rect": [ 31.14754009246826, 285.24589347839355, 206.55737113952637, 22.0 ]
                }
            },
            {
                "box": {
                    "attr": "L",
                    "id": "obj-28",
                    "maxclass": "attrui",
                    "numinlets": 1,
                    "numoutlets": 1,
                    "outlettype": [ "" ],
                    "parameter_enable": 0,
                    "patching_rect": [ 263.9344186782837, 272.131139755249, 150.0, 22.0 ]
                }
            },
            {
                "box": {
                    "attr": "T_deg",
                    "id": "obj-29",
                    "maxclass": "attrui",
                    "numinlets": 1,
                    "numoutlets": 1,
                    "outlettype": [ "" ],
                    "parameter_enable": 0,
                    "patching_rect": [ 286.8852376937866, 295.08195877075195, 150.0, 22.0 ]
                }
            },
            {
                "box": {
                    "attr": "H",
                    "id": "obj-32",
                    "maxclass": "attrui",
                    "numinlets": 1,
                    "numoutlets": 1,
                    "outlettype": [ "" ],
                    "parameter_enable": 0,
                    "patching_rect": [ 306.5573682785034, 319.67212200164795, 150.0, 22.0 ]
                }
            },
            {
                "box": {
                    "attr": "w",
                    "id": "obj-33",
                    "maxclass": "attrui",
                    "numinlets": 1,
                    "numoutlets": 1,
                    "outlettype": [ "" ],
                    "parameter_enable": 0,
                    "patching_rect": [ 329.50818729400635, 342.6229410171509, 171.31147480010986, 22.0 ]
                }
            },
            {
                "box": {
                    "attr": "gamma",
                    "id": "obj-34",
                    "maxclass": "attrui",
                    "numinlets": 1,
                    "numoutlets": 1,
                    "outlettype": [ "" ],
                    "parameter_enable": 0,
                    "patching_rect": [ 7.69230842590332, 253.84617805480957, 150.0, 22.0 ]
                }
            },
            {
                "box": {
                    "attr": "P_M",
                    "id": "obj-35",
                    "maxclass": "attrui",
                    "numinlets": 1,
                    "numoutlets": 1,
                    "outlettype": [ "" ],
                    "parameter_enable": 0,
                    "patching_rect": [ 350.8196620941162, 367.2131042480469, 150.0, 22.0 ]
                }
            }
        ],
        "lines": [
            {
                "patchline": {
                    "destination": [ "obj-53", 0 ],
                    "source": [ "obj-12", 0 ]
                }
            },
            {
                "patchline": {
                    "destination": [ "obj-50", 0 ],
                    "source": [ "obj-13", 0 ]
                }
            },
            {
                "patchline": {
                    "destination": [ "obj-91", 1 ],
                    "source": [ "obj-14", 1 ]
                }
            },
            {
                "patchline": {
                    "destination": [ "obj-91", 0 ],
                    "source": [ "obj-14", 0 ]
                }
            },
            {
                "patchline": {
                    "destination": [ "obj-5", 0 ],
                    "source": [ "obj-15", 0 ]
                }
            },
            {
                "patchline": {
                    "destination": [ "obj-76", 0 ],
                    "source": [ "obj-16", 0 ]
                }
            },
            {
                "patchline": {
                    "destination": [ "obj-10", 0 ],
                    "source": [ "obj-25", 0 ]
                }
            },
            {
                "patchline": {
                    "destination": [ "obj-76", 0 ],
                    "source": [ "obj-26", 0 ]
                }
            },
            {
                "patchline": {
                    "destination": [ "obj-48", 0 ],
                    "source": [ "obj-27", 0 ]
                }
            },
            {
                "patchline": {
                    "destination": [ "obj-76", 0 ],
                    "source": [ "obj-28", 0 ]
                }
            },
            {
                "patchline": {
                    "destination": [ "obj-76", 0 ],
                    "source": [ "obj-29", 0 ]
                }
            },
            {
                "patchline": {
                    "destination": [ "obj-76", 0 ],
                    "source": [ "obj-32", 0 ]
                }
            },
            {
                "patchline": {
                    "destination": [ "obj-76", 0 ],
                    "source": [ "obj-33", 0 ]
                }
            },
            {
                "patchline": {
                    "destination": [ "obj-76", 0 ],
                    "source": [ "obj-34", 0 ]
                }
            },
            {
                "patchline": {
                    "destination": [ "obj-76", 0 ],
                    "source": [ "obj-35", 0 ]
                }
            },
            {
                "patchline": {
                    "destination": [ "obj-27", 0 ],
                    "source": [ "obj-38", 0 ]
                }
            },
            {
                "patchline": {
                    "destination": [ "obj-27", 0 ],
                    "source": [ "obj-42", 0 ]
                }
            },
            {
                "patchline": {
                    "destination": [ "obj-82", 0 ],
                    "midpoints": [ 818.4285637140274, 150.02641913526918, 795.4664517140275, 150.02641913526918, 795.4664517140275, 58.617956135269196, 818.4285637140274, 58.617956135269196 ],
                    "source": [ "obj-45", 0 ]
                }
            },
            {
                "patchline": {
                    "destination": [ "obj-82", 0 ],
                    "source": [ "obj-46", 0 ]
                }
            },
            {
                "patchline": {
                    "destination": [ "obj-38", 0 ],
                    "source": [ "obj-47", 0 ]
                }
            },
            {
                "patchline": {
                    "destination": [ "obj-76", 0 ],
                    "source": [ "obj-5", 0 ]
                }
            },
            {
                "patchline": {
                    "destination": [ "obj-51", 0 ],
                    "source": [ "obj-50", 0 ]
                }
            },
            {
                "patchline": {
                    "destination": [ "obj-10", 2 ],
                    "source": [ "obj-51", 0 ]
                }
            },
            {
                "patchline": {
                    "destination": [ "obj-10", 1 ],
                    "source": [ "obj-52", 0 ]
                }
            },
            {
                "patchline": {
                    "destination": [ "obj-52", 0 ],
                    "source": [ "obj-53", 0 ]
                }
            },
            {
                "patchline": {
                    "destination": [ "obj-12", 0 ],
                    "order": 3,
                    "source": [ "obj-76", 0 ]
                }
            },
            {
                "patchline": {
                    "destination": [ "obj-14", 0 ],
                    "order": 4,
                    "source": [ "obj-76", 0 ]
                }
            },
            {
                "patchline": {
                    "destination": [ "obj-2", 0 ],
                    "order": 2,
                    "source": [ "obj-76", 0 ]
                }
            },
            {
                "patchline": {
                    "destination": [ "obj-3", 0 ],
                    "order": 1,
                    "source": [ "obj-76", 0 ]
                }
            },
            {
                "patchline": {
                    "destination": [ "obj-39", 0 ],
                    "order": 0,
                    "source": [ "obj-76", 0 ]
                }
            },
            {
                "patchline": {
                    "destination": [ "obj-37", 0 ],
                    "source": [ "obj-82", 1 ]
                }
            },
            {
                "patchline": {
                    "destination": [ "obj-45", 0 ],
                    "source": [ "obj-82", 0 ]
                }
            }
        ],
        "parameters": {
            "obj-14": [ "live.gain~", "live.gain~", 0 ],
            "parameterbanks": {
                "0": {
                    "index": 0,
                    "name": "",
                    "parameters": [ "-", "-", "-", "-", "-", "-", "-", "-" ],
                    "buttons": [ "-", "-", "-", "-", "-", "-", "-", "-" ]
                }
            },
            "inherited_shortname": 1
        },
        "autosave": 0,
        "styles": [
            {
                "name": "rnbodefault",
                "default": {
                    "accentcolor": [ 0.343034118413925, 0.506230533123016, 0.86220508813858, 1.0 ],
                    "bgcolor": [ 0.031372549019608, 0.125490196078431, 0.211764705882353, 1.0 ],
                    "bgfillcolor": {
                        "angle": 270.0,
                        "autogradient": 0.0,
                        "color": [ 0.031372549019608, 0.125490196078431, 0.211764705882353, 1.0 ],
                        "color1": [ 0.031372549019608, 0.125490196078431, 0.211764705882353, 1.0 ],
                        "color2": [ 0.263682, 0.004541, 0.038797, 1.0 ],
                        "proportion": 0.39,
                        "type": "color"
                    },
                    "color": [ 0.929412, 0.929412, 0.352941, 1.0 ],
                    "elementcolor": [ 0.357540726661682, 0.515565991401672, 0.861786782741547, 1.0 ],
                    "fontname": [ "Lato" ],
                    "fontsize": [ 12.0 ],
                    "stripecolor": [ 0.258338063955307, 0.352425158023834, 0.511919498443604, 1.0 ],
                    "textcolor_inverse": [ 0.968627, 0.968627, 0.968627, 1 ]
                },
                "parentstyle": "",
                "multi": 0
            }
        ]
    }
}